<svg width="24" height="24" viewBox="0 0 24 24" fill="none" xmlns="http://www.w3.org/2000/svg">
<path d="M21 12C21.0028 13.7867 20.4714 15.5335 19.474 17.016C18.6514 18.243 17.5391 19.2484 16.2356 19.9433C14.932 20.6382 13.4772 21.0011 12 21C10.5228 21.0011 9.06804 20.6382 7.76444 19.9433C6.46085 19.2484 5.34858 18.243 4.526 17.016C3.74273 15.8484 3.2439 14.5135 3.06951 13.1184C2.89511 11.7233 3.05 10.3067 3.52175 8.98227C3.9935 7.6578 4.769 6.46228 5.78607 5.49154C6.80314 4.52081 8.0335 3.80186 9.37851 3.39233C10.7235 2.9828 12.1458 2.89408 13.5312 3.13329C14.9167 3.3725 16.2269 3.93299 17.3567 4.76981C18.4865 5.60663 19.4046 6.69651 20.0373 7.95209C20.67 9.20767 20.9997 10.594 21 12Z" stroke="#E8DEF8" stroke-width="1.5"/>
<path d="M13.25 9C13.25 9.69 12.69 10.25 12 10.25V11.75C12.7293 11.75 13.4288 11.4603 13.9445 10.9445C14.4602 10.4288 14.75 9.72935 14.75 9H13.25ZM12 10.25C11.31 10.25 10.75 9.69 10.75 9H9.24996C9.24996 9.72935 9.53969 10.4288 10.0554 10.9445C10.5711 11.4603 11.2706 11.75 12 11.75V10.25ZM10.75 9C10.75 8.31 11.31 7.75 12 7.75V6.25C11.2706 6.25 10.5711 6.53973 10.0554 7.05546C9.53969 7.57118 9.24996 8.27065 9.24996 9H10.75ZM12 7.75C12.69 7.75 13.25 8.31 13.25 9H14.75C14.75 8.27065 14.4602 7.57118 13.9445 7.05546C13.4288 6.53973 12.7293 6.25 12 6.25V7.75ZM5.16596 17.856L4.44696 17.642L4.32996 18.034L4.59696 18.344L5.16596 17.856ZM18.834 17.856L19.404 18.345L19.67 18.035L19.553 17.642L18.834 17.856ZM8.99996 15.75H15V14.25H8.99996V15.75ZM8.99996 14.25C7.97698 14.2497 6.98124 14.5797 6.16089 15.1909C5.34054 15.802 4.73942 16.6617 4.44696 17.642L5.88496 18.07C6.0852 17.3995 6.49653 16.8115 7.05777 16.3935C7.619 15.9755 8.30017 15.7498 8.99996 15.75V14.25ZM12 20.25C10.8094 20.2514 9.63267 19.9944 8.55104 19.4968C7.46941 18.9993 6.50862 18.273 5.73496 17.368L4.59696 18.344C5.51142 19.413 6.6468 20.272 7.92485 20.8598C9.20289 21.4476 10.5932 21.7513 12 21.75V20.25ZM15 15.75C16.47 15.75 17.715 16.728 18.115 18.07L19.553 17.642C19.2605 16.6617 18.6594 15.802 17.839 15.1909C17.0187 14.5797 16.0229 14.2497 15 14.25V15.75ZM18.265 17.368C17.4913 18.273 16.5305 18.9993 15.4489 19.4968C14.3672 19.9944 13.1905 20.2514 12 20.25V21.75C13.4067 21.7513 14.797 21.4476 16.0751 20.8598C17.3531 20.272 18.4895 19.414 19.404 18.345L18.265 17.368Z" fill="#E8DEF8"/>
</svg>
