<svg width="20" height="20" viewBox="0 0 20 20" fill="none" xmlns="http://www.w3.org/2000/svg">
<path d="M19 9.99999C19.0028 11.7867 18.4714 13.5335 17.474 15.016C16.6514 16.243 15.5391 17.2484 14.2356 17.9433C12.932 18.6382 11.4772 19.0011 10 19C8.52277 19.0011 7.06804 18.6382 5.76444 17.9433C4.46085 17.2484 3.34858 16.243 2.526 15.016C1.74273 13.8484 1.2439 12.5135 1.06951 11.1184C0.895109 9.72331 1.05 8.30674 1.52175 6.98227C1.9935 5.6578 2.769 4.46228 3.78607 3.49154C4.80314 2.52081 6.0335 1.80186 7.37851 1.39233C8.72352 0.982799 10.1458 0.894084 11.5312 1.13329C12.9167 1.3725 14.2269 1.93299 15.3567 2.76981C16.4865 3.60663 17.4046 4.69651 18.0373 5.95209C18.67 7.20767 18.9997 8.59401 19 9.99999Z" stroke="#E8DEF8" stroke-width="1.5"/>
<path d="M11.25 7C11.25 7.69 10.69 8.25 10 8.25V9.75C10.7293 9.75 11.4288 9.46027 11.9445 8.94454C12.4603 8.42882 12.75 7.72935 12.75 7H11.25ZM10 8.25C9.31 8.25 8.75 7.69 8.75 7H7.25C7.25 7.72935 7.53973 8.42882 8.05546 8.94454C8.57118 9.46027 9.27066 9.75 10 9.75V8.25ZM8.75 7C8.75 6.31 9.31 5.75 10 5.75V4.25C9.27066 4.25 8.57118 4.53973 8.05546 5.05546C7.53973 5.57118 7.25 6.27065 7.25 7H8.75ZM10 5.75C10.69 5.75 11.25 6.31 11.25 7H12.75C12.75 6.27065 12.4603 5.57118 11.9445 5.05546C11.4288 4.53973 10.7293 4.25 10 4.25V5.75ZM3.166 15.856L2.447 15.642L2.33 16.034L2.597 16.344L3.166 15.856ZM16.834 15.856L17.404 16.345L17.67 16.035L17.553 15.642L16.834 15.856ZM7 13.75H13V12.25H7V13.75ZM7 12.25C5.97702 12.2497 4.98129 12.5797 4.16094 13.1909C3.34059 13.802 2.73947 14.6617 2.447 15.642L3.885 16.07C4.08525 15.3995 4.49658 14.8115 5.05781 14.3935C5.61905 13.9755 6.30021 13.7498 7 13.75V12.25ZM10 18.25C8.80942 18.2514 7.63271 17.9944 6.55109 17.4968C5.46946 16.9993 4.50866 16.273 3.735 15.368L2.597 16.344C3.51146 17.413 4.64685 18.272 5.92489 18.8598C7.20294 19.4476 8.59325 19.7513 10 19.75V18.25ZM13 13.75C14.47 13.75 15.715 14.728 16.115 16.07L17.553 15.642C17.2605 14.6617 16.6594 13.802 15.8391 13.1909C15.0187 12.5797 14.023 12.2497 13 12.25V13.75ZM16.265 15.368C15.4913 16.273 14.5305 16.9993 13.4489 17.4968C12.3673 17.9944 11.1906 18.2514 10 18.25V19.75C11.4068 19.7513 12.7971 19.4476 14.0751 18.8598C15.3532 18.272 16.4895 17.414 17.404 16.345L16.265 15.368Z" fill="#E8DEF8"/>
</svg>
