<svg width="24" height="25" viewBox="0 0 24 25" fill="none" xmlns="http://www.w3.org/2000/svg">
<path d="M7 11.8574H9V13.8574H7V11.8574ZM7 15.8574H9V17.8574H7V15.8574ZM11 11.8574H13V13.8574H11V11.8574ZM11 15.8574H13V17.8574H11V15.8574ZM15 11.8574H17V13.8574H15V11.8574ZM15 15.8574H17V17.8574H15V15.8574Z" fill="white"/>
<path d="M5 22.8574H19C20.103 22.8574 21 21.9604 21 20.8574V6.85742C21 5.75442 20.103 4.85742 19 4.85742H17V2.85742H15V4.85742H9V2.85742H7V4.85742H5C3.897 4.85742 3 5.75442 3 6.85742V20.8574C3 21.9604 3.897 22.8574 5 22.8574ZM19 8.85742L19.001 20.8574H5V8.85742H19Z" fill="white"/>
</svg>
