<svg width="28" height="29" viewBox="0 0 28 29" fill="none" xmlns="http://www.w3.org/2000/svg">
<g filter="url(#filter0_i_1_47)">
<path d="M14 25.1894C20.0061 25.1894 24.875 20.3205 24.875 14.3144C24.875 8.3083 20.0061 3.43939 14 3.43939C7.9939 3.43939 3.125 8.3083 3.125 14.3144C3.125 20.3205 7.9939 25.1894 14 25.1894Z" fill="url(#paint0_linear_1_47)"/>
</g>
<g filter="url(#filter1_iiii_1_47)">
<path fill-rule="evenodd" clip-rule="evenodd" d="M14 28.2834C21.715 28.2834 27.969 22.0294 27.969 14.3144C27.969 6.5994 21.715 0.345398 14 0.345398C6.285 0.345398 0.0309982 6.6004 0.0309982 14.3154C0.0309982 22.0294 6.285 28.2834 14 28.2834ZM14 25.1894C20.006 25.1894 24.875 20.3204 24.875 14.3144C24.875 8.3084 20.006 3.4404 14 3.4404C7.994 3.4404 3.125 8.3084 3.125 14.3144C3.125 20.3204 7.994 25.1904 14 25.1904" fill="url(#paint1_linear_1_47)"/>
</g>
<g filter="url(#filter2_f_1_47)">
<path fill-rule="evenodd" clip-rule="evenodd" d="M7.913 9.2154C7.8277 9.26965 7.7575 9.34457 7.70889 9.4332C7.66029 9.52184 7.63488 9.62131 7.635 9.7224V10.0024C7.63503 10.1242 7.67956 10.2419 7.76021 10.3332C7.84086 10.4246 7.95209 10.4833 8.073 10.4984V18.0954H7.965C7.81007 18.0955 7.65957 18.147 7.53705 18.2418C7.41454 18.3367 7.32695 18.4695 7.288 18.6194L6.978 19.8054C6.95874 19.8793 6.95669 19.9567 6.972 20.0316C6.98731 20.1064 7.01957 20.1768 7.0663 20.2372C7.11304 20.2977 7.173 20.3466 7.2416 20.3803C7.31019 20.4139 7.38559 20.4314 7.462 20.4314H19.912C19.9872 20.4315 20.0615 20.4146 20.1293 20.382C20.1971 20.3494 20.2567 20.302 20.3036 20.2431C20.3505 20.1843 20.3836 20.1156 20.4003 20.0423C20.4169 19.9689 20.4169 19.8927 20.4 19.8194L20.128 18.6384C20.0924 18.4839 20.0055 18.3461 19.8815 18.2475C19.7574 18.1488 19.6035 18.0952 19.445 18.0954H19.338V10.4954C19.4555 10.4768 19.5625 10.417 19.6398 10.3267C19.7172 10.2363 19.7598 10.1213 19.76 10.0024V9.7224C19.7602 9.62141 19.735 9.52199 19.6865 9.43336C19.6381 9.34474 19.5681 9.26977 19.483 9.2154L14.1 5.7904C13.9796 5.71368 13.8398 5.67293 13.697 5.67293C13.5542 5.67293 13.4144 5.71368 13.294 5.7904L7.913 9.2154ZM17.729 18.0954V10.5024H16.119V18.0954H17.729ZM14.51 18.0954V10.5024H12.9V18.0954H14.51ZM11.291 18.0954V10.5024H9.682V18.0954H11.291Z" fill="#DC7B3C"/>
</g>
<g filter="url(#filter3_ii_1_47)">
<path d="M7.948 9.4404C7.94794 9.33958 7.97329 9.24037 8.0217 9.15193C8.07011 9.06349 8.14003 8.98868 8.225 8.93441L13.608 5.5084C13.7283 5.43189 13.8679 5.39125 14.0105 5.39125C14.1531 5.39125 14.2927 5.43189 14.413 5.5084L19.795 8.93441C19.8801 8.98856 19.9503 9.06332 19.9989 9.15177C20.0475 9.24022 20.073 9.33949 20.073 9.4404V9.7204C20.073 9.85301 20.0203 9.98019 19.9266 10.074C19.8328 10.1677 19.7056 10.2204 19.573 10.2204H8.448C8.31539 10.2204 8.18821 10.1677 8.09444 10.074C8.00068 9.98019 7.948 9.85301 7.948 9.7204V9.4404Z" fill="#FFC546"/>
</g>
<path d="M7.948 9.4404C7.94794 9.33958 7.97329 9.24037 8.0217 9.15193C8.07011 9.06349 8.14003 8.98868 8.225 8.93441L13.608 5.5084C13.7283 5.43189 13.8679 5.39125 14.0105 5.39125C14.1531 5.39125 14.2927 5.43189 14.413 5.5084L19.795 8.93441C19.8801 8.98856 19.9503 9.06332 19.9989 9.15177C20.0475 9.24022 20.073 9.33949 20.073 9.4404V9.7204C20.073 9.85301 20.0203 9.98019 19.9266 10.074C19.8328 10.1677 19.7056 10.2204 19.573 10.2204H8.448C8.31539 10.2204 8.18821 10.1677 8.09444 10.074C8.00068 9.98019 7.948 9.85301 7.948 9.7204V9.4404Z" fill="url(#paint2_linear_1_47)"/>
<path d="M8.385 10.0174C8.385 9.95109 8.41134 9.8875 8.45822 9.84062C8.50511 9.79373 8.56869 9.7674 8.635 9.7674H9.745C9.8113 9.7674 9.87489 9.79373 9.92177 9.84062C9.96866 9.8875 9.995 9.95109 9.995 10.0174V18.0334H8.385V10.0174Z" fill="url(#paint3_linear_1_47)"/>
<path d="M8.385 10.0174C8.385 9.95109 8.41134 9.8875 8.45822 9.84062C8.50511 9.79373 8.56869 9.7674 8.635 9.7674H9.745C9.8113 9.7674 9.87489 9.79373 9.92177 9.84062C9.96866 9.8875 9.995 9.95109 9.995 10.0174V18.0334H8.385V10.0174Z" fill="url(#paint4_linear_1_47)"/>
<path d="M11.604 9.7674H13.213V18.0334H11.604V9.7674Z" fill="url(#paint5_linear_1_47)"/>
<path d="M11.604 9.7674H13.213V18.0334H11.604V9.7674Z" fill="url(#paint6_linear_1_47)"/>
<path d="M14.823 9.7674H16.432V18.0334H14.823V9.7674Z" fill="url(#paint7_linear_1_47)"/>
<path d="M14.823 9.7674H16.432V18.0334H14.823V9.7674Z" fill="url(#paint8_linear_1_47)"/>
<path d="M18.041 9.7674H19.65V18.0334H18.041V9.7674Z" fill="url(#paint9_linear_1_47)"/>
<path d="M18.041 9.7674H19.65V18.0334H18.041V9.7674Z" fill="url(#paint10_linear_1_47)"/>
<g filter="url(#filter4_ii_1_47)">
<path d="M7.6 18.3374C7.63918 18.1875 7.72701 18.0548 7.84971 17.9601C7.9724 17.8655 8.12304 17.8142 8.278 17.8144H19.758C19.9163 17.8144 20.07 17.8681 20.1938 17.9668C20.3177 18.0654 20.4045 18.2031 20.44 18.3574L20.713 19.5374C20.73 19.6108 20.7302 19.6871 20.7136 19.7606C20.697 19.8341 20.664 19.9029 20.6171 19.9618C20.5702 20.0208 20.5105 20.0683 20.4426 20.101C20.3747 20.1336 20.3003 20.1505 20.225 20.1504H7.775C7.69859 20.1504 7.6232 20.1329 7.5546 20.0993C7.48601 20.0656 7.42604 20.0167 7.37931 19.9562C7.33257 19.8958 7.30031 19.8254 7.285 19.7506C7.26969 19.6757 7.27175 19.5983 7.291 19.5244L7.6 18.3374Z" fill="#FFC248"/>
</g>
<defs>
<filter id="filter0_i_1_47" x="2.875" y="3.43939" width="22" height="22" filterUnits="userSpaceOnUse" color-interpolation-filters="sRGB">
<feFlood flood-opacity="0" result="BackgroundImageFix"/>
<feBlend mode="normal" in="SourceGraphic" in2="BackgroundImageFix" result="shape"/>
<feColorMatrix in="SourceAlpha" type="matrix" values="0 0 0 0 0 0 0 0 0 0 0 0 0 0 0 0 0 0 127 0" result="hardAlpha"/>
<feOffset dx="-0.25" dy="0.25"/>
<feGaussianBlur stdDeviation="0.5"/>
<feComposite in2="hardAlpha" operator="arithmetic" k2="-1" k3="1"/>
<feColorMatrix type="matrix" values="0 0 0 0 0.831373 0 0 0 0 0.45098 0 0 0 0 0.196078 0 0 0 1 0"/>
<feBlend mode="normal" in2="shape" result="effect1_innerShadow_1_47"/>
</filter>
<filter id="filter1_iiii_1_47" x="-0.269002" y="0.0453979" width="28.538" height="28.538" filterUnits="userSpaceOnUse" color-interpolation-filters="sRGB">
<feFlood flood-opacity="0" result="BackgroundImageFix"/>
<feBlend mode="normal" in="SourceGraphic" in2="BackgroundImageFix" result="shape"/>
<feColorMatrix in="SourceAlpha" type="matrix" values="0 0 0 0 0 0 0 0 0 0 0 0 0 0 0 0 0 0 127 0" result="hardAlpha"/>
<feOffset dx="0.3" dy="0.3"/>
<feGaussianBlur stdDeviation="0.3"/>
<feComposite in2="hardAlpha" operator="arithmetic" k2="-1" k3="1"/>
<feColorMatrix type="matrix" values="0 0 0 0 0.886275 0 0 0 0 0.662745 0 0 0 0 0.235294 0 0 0 1 0"/>
<feBlend mode="normal" in2="shape" result="effect1_innerShadow_1_47"/>
<feColorMatrix in="SourceAlpha" type="matrix" values="0 0 0 0 0 0 0 0 0 0 0 0 0 0 0 0 0 0 127 0" result="hardAlpha"/>
<feOffset dx="0.3" dy="-0.3"/>
<feGaussianBlur stdDeviation="0.3"/>
<feComposite in2="hardAlpha" operator="arithmetic" k2="-1" k3="1"/>
<feColorMatrix type="matrix" values="0 0 0 0 0.956863 0 0 0 0 0.607843 0 0 0 0 0.294118 0 0 0 1 0"/>
<feBlend mode="normal" in2="effect1_innerShadow_1_47" result="effect2_innerShadow_1_47"/>
<feColorMatrix in="SourceAlpha" type="matrix" values="0 0 0 0 0 0 0 0 0 0 0 0 0 0 0 0 0 0 127 0" result="hardAlpha"/>
<feOffset dy="-0.3"/>
<feGaussianBlur stdDeviation="0.3"/>
<feComposite in2="hardAlpha" operator="arithmetic" k2="-1" k3="1"/>
<feColorMatrix type="matrix" values="0 0 0 0 0.956863 0 0 0 0 0.607843 0 0 0 0 0.294118 0 0 0 1 0"/>
<feBlend mode="normal" in2="effect2_innerShadow_1_47" result="effect3_innerShadow_1_47"/>
<feColorMatrix in="SourceAlpha" type="matrix" values="0 0 0 0 0 0 0 0 0 0 0 0 0 0 0 0 0 0 127 0" result="hardAlpha"/>
<feOffset dx="-0.3" dy="0.3"/>
<feGaussianBlur stdDeviation="0.3"/>
<feComposite in2="hardAlpha" operator="arithmetic" k2="-1" k3="1"/>
<feColorMatrix type="matrix" values="0 0 0 0 1 0 0 0 0 0.882353 0 0 0 0 0.337255 0 0 0 1 0"/>
<feBlend mode="normal" in2="effect3_innerShadow_1_47" result="effect4_innerShadow_1_47"/>
</filter>
<filter id="filter2_f_1_47" x="6.36186" y="5.07293" width="14.6508" height="15.9585" filterUnits="userSpaceOnUse" color-interpolation-filters="sRGB">
<feFlood flood-opacity="0" result="BackgroundImageFix"/>
<feBlend mode="normal" in="SourceGraphic" in2="BackgroundImageFix" result="shape"/>
<feGaussianBlur stdDeviation="0.3" result="effect1_foregroundBlur_1_47"/>
</filter>
<filter id="filter3_ii_1_47" x="7.948" y="5.14125" width="12.275" height="5.32915" filterUnits="userSpaceOnUse" color-interpolation-filters="sRGB">
<feFlood flood-opacity="0" result="BackgroundImageFix"/>
<feBlend mode="normal" in="SourceGraphic" in2="BackgroundImageFix" result="shape"/>
<feColorMatrix in="SourceAlpha" type="matrix" values="0 0 0 0 0 0 0 0 0 0 0 0 0 0 0 0 0 0 127 0" result="hardAlpha"/>
<feOffset dy="-0.25"/>
<feGaussianBlur stdDeviation="0.25"/>
<feComposite in2="hardAlpha" operator="arithmetic" k2="-1" k3="1"/>
<feColorMatrix type="matrix" values="0 0 0 0 0.980392 0 0 0 0 0.647059 0 0 0 0 0.172549 0 0 0 1 0"/>
<feBlend mode="normal" in2="shape" result="effect1_innerShadow_1_47"/>
<feColorMatrix in="SourceAlpha" type="matrix" values="0 0 0 0 0 0 0 0 0 0 0 0 0 0 0 0 0 0 127 0" result="hardAlpha"/>
<feOffset dx="0.15" dy="0.25"/>
<feGaussianBlur stdDeviation="0.25"/>
<feComposite in2="hardAlpha" operator="arithmetic" k2="-1" k3="1"/>
<feColorMatrix type="matrix" values="0 0 0 0 0.980392 0 0 0 0 0.647059 0 0 0 0 0.172549 0 0 0 1 0"/>
<feBlend mode="normal" in2="effect1_innerShadow_1_47" result="effect2_innerShadow_1_47"/>
</filter>
<filter id="filter4_ii_1_47" x="7.02486" y="17.5644" width="13.9511" height="2.836" filterUnits="userSpaceOnUse" color-interpolation-filters="sRGB">
<feFlood flood-opacity="0" result="BackgroundImageFix"/>
<feBlend mode="normal" in="SourceGraphic" in2="BackgroundImageFix" result="shape"/>
<feColorMatrix in="SourceAlpha" type="matrix" values="0 0 0 0 0 0 0 0 0 0 0 0 0 0 0 0 0 0 127 0" result="hardAlpha"/>
<feOffset dx="0.25" dy="-0.25"/>
<feGaussianBlur stdDeviation="0.2"/>
<feComposite in2="hardAlpha" operator="arithmetic" k2="-1" k3="1"/>
<feColorMatrix type="matrix" values="0 0 0 0 0.992157 0 0 0 0 0.658824 0 0 0 0 0.0705882 0 0 0 1 0"/>
<feBlend mode="normal" in2="shape" result="effect1_innerShadow_1_47"/>
<feColorMatrix in="SourceAlpha" type="matrix" values="0 0 0 0 0 0 0 0 0 0 0 0 0 0 0 0 0 0 127 0" result="hardAlpha"/>
<feOffset dx="-0.25" dy="0.25"/>
<feGaussianBlur stdDeviation="0.2"/>
<feComposite in2="hardAlpha" operator="arithmetic" k2="-1" k3="1"/>
<feColorMatrix type="matrix" values="0 0 0 0 1 0 0 0 0 0.8 0 0 0 0 0.290196 0 0 0 1 0"/>
<feBlend mode="normal" in2="effect1_innerShadow_1_47" result="effect2_innerShadow_1_47"/>
</filter>
<linearGradient id="paint0_linear_1_47" x1="9.563" y1="19.7524" x2="21.313" y2="4.93939" gradientUnits="userSpaceOnUse">
<stop stop-color="#F19D48"/>
<stop offset="1" stop-color="#E89A44"/>
</linearGradient>
<linearGradient id="paint1_linear_1_47" x1="14" y1="0.345398" x2="14" y2="28.2834" gradientUnits="userSpaceOnUse">
<stop stop-color="#FFC444"/>
<stop offset="1" stop-color="#FFC24B"/>
</linearGradient>
<linearGradient id="paint2_linear_1_47" x1="17.313" y1="7.18941" x2="16.906" y2="7.80641" gradientUnits="userSpaceOnUse">
<stop offset="0.459" stop-color="#FFCA3F"/>
<stop offset="1" stop-color="#FFCA3F" stop-opacity="0"/>
</linearGradient>
<linearGradient id="paint3_linear_1_47" x1="8.531" y1="12.9594" x2="9.313" y2="12.9594" gradientUnits="userSpaceOnUse">
<stop offset="0.167" stop-color="#FFB33B"/>
<stop offset="1" stop-color="#FFC047"/>
</linearGradient>
<linearGradient id="paint4_linear_1_47" x1="9.995" y1="14.5864" x2="9.609" y2="14.5864" gradientUnits="userSpaceOnUse">
<stop offset="0.067" stop-color="#FFC34C"/>
<stop offset="1" stop-color="#FFC34C" stop-opacity="0"/>
</linearGradient>
<linearGradient id="paint5_linear_1_47" x1="11.75" y1="12.9594" x2="12.531" y2="12.9594" gradientUnits="userSpaceOnUse">
<stop offset="0.167" stop-color="#FFB33B"/>
<stop offset="1" stop-color="#FFC047"/>
</linearGradient>
<linearGradient id="paint6_linear_1_47" x1="13.213" y1="14.5864" x2="12.828" y2="14.5864" gradientUnits="userSpaceOnUse">
<stop offset="0.067" stop-color="#FFC34C"/>
<stop offset="1" stop-color="#FFC34C" stop-opacity="0"/>
</linearGradient>
<linearGradient id="paint7_linear_1_47" x1="14.969" y1="12.9594" x2="15.75" y2="12.9594" gradientUnits="userSpaceOnUse">
<stop offset="0.167" stop-color="#FFB33B"/>
<stop offset="1" stop-color="#FFC047"/>
</linearGradient>
<linearGradient id="paint8_linear_1_47" x1="16.432" y1="14.5864" x2="16.047" y2="14.5864" gradientUnits="userSpaceOnUse">
<stop offset="0.067" stop-color="#FFC34C"/>
<stop offset="1" stop-color="#FFC34C" stop-opacity="0"/>
</linearGradient>
<linearGradient id="paint9_linear_1_47" x1="18.188" y1="12.9594" x2="18.969" y2="12.9594" gradientUnits="userSpaceOnUse">
<stop offset="0.167" stop-color="#FFB33B"/>
<stop offset="1" stop-color="#FFC047"/>
</linearGradient>
<linearGradient id="paint10_linear_1_47" x1="19.651" y1="14.5864" x2="19.266" y2="14.5864" gradientUnits="userSpaceOnUse">
<stop offset="0.067" stop-color="#FFC34C"/>
<stop offset="1" stop-color="#FFC34C" stop-opacity="0"/>
</linearGradient>
</defs>
</svg>
