<svg width="24" height="25" viewBox="0 0 24 25" fill="none" xmlns="http://www.w3.org/2000/svg">
<g clip-path="url(#clip0_262_1357)">
<path d="M8.925 15.4973V9.76733H10.17V15.4973H8.925ZM11.4075 15.4973V9.76733H12.675V15.4973H11.4075ZM13.92 15.4973V9.76733H15.135V15.4973H13.92Z" fill="white"/>
<path d="M12 21.1074C16.5562 21.1074 20.25 17.4137 20.25 12.8574C20.25 8.30117 16.5562 4.60742 12 4.60742C7.44375 4.60742 3.75 8.30117 3.75 12.8574C3.75 17.4137 7.44375 21.1074 12 21.1074ZM17.0475 16.7124C17.13 16.9749 16.935 17.2374 16.6725 17.2449H7.335C7.0725 17.2449 6.8775 16.9899 6.9525 16.7349L7.215 15.7974C7.26 15.6249 7.4175 15.5049 7.5975 15.5049H7.68V9.67742C7.365 9.46742 7.305 8.94992 7.695 8.71742L11.745 6.27242C11.925 6.15992 12.15 6.15992 12.33 6.27242L16.3725 8.71742C16.7625 8.94992 16.7025 9.46742 16.38 9.67742V15.4974H16.3575C16.53 15.4974 16.6875 15.6099 16.74 15.7749L17.0475 16.7124Z" fill="white"/>
<path d="M12 1.60742C5.787 1.60742 0.75 6.64442 0.75 12.8574C0.75 19.0704 5.787 24.1074 12 24.1074C18.213 24.1074 23.25 19.0704 23.25 12.8574C23.25 6.64442 18.213 1.60742 12 1.60742ZM2.25 12.8574C2.25 7.47242 6.615 3.10742 12 3.10742C17.385 3.10742 21.75 7.47242 21.75 12.8574C21.75 18.2424 17.385 22.6074 12 22.6074C6.615 22.6074 2.25 18.2424 2.25 12.8574Z" fill="white"/>
</g>
<defs>
<clipPath id="clip0_262_1357">
<rect width="24" height="24" fill="white" transform="translate(0 0.857422)"/>
</clipPath>
</defs>
</svg>
