<svg width="20" height="20" viewBox="0 0 20 20" fill="none" xmlns="http://www.w3.org/2000/svg">
<path d="M7.575 7.50008C7.77092 6.94314 8.15762 6.4735 8.66663 6.17436C9.17563 5.87521 9.77408 5.76586 10.356 5.86567C10.9379 5.96549 11.4657 6.26802 11.8459 6.71969C12.2261 7.17136 12.4342 7.74302 12.4333 8.33341C12.4333 10.0001 9.93333 10.8334 9.93333 10.8334M10 14.1667H10.0083M18.3333 10.0001C18.3333 14.6025 14.6024 18.3334 10 18.3334C5.39762 18.3334 1.66666 14.6025 1.66666 10.0001C1.66666 5.39771 5.39762 1.66675 10 1.66675C14.6024 1.66675 18.3333 5.39771 18.3333 10.0001Z" stroke="white" stroke-width="2" stroke-linecap="round" stroke-linejoin="round"/>
</svg>
