<svg width="24" height="24" viewBox="0 0 24 24" fill="none" xmlns="http://www.w3.org/2000/svg">
<path d="M17 13.0001L13 22.0001C12.2044 22.0001 11.4413 21.684 10.8787 21.1214C10.3161 20.5588 10 19.7958 10 19.0001V15.0001H4.34C4.05009 15.0034 3.76294 14.9436 3.49843 14.8249C3.23392 14.7062 2.99839 14.5314 2.80814 14.3126C2.6179 14.0938 2.47749 13.8363 2.39666 13.5579C2.31583 13.2794 2.29649 12.9868 2.34 12.7001L3.72 3.70012C3.79232 3.22321 4.03457 2.78851 4.40209 2.47611C4.76962 2.16371 5.23767 1.99466 5.72 2.00012H17M17 13.0001V2.00012M17 13.0001H19.67C20.236 13.0101 20.7859 12.812 21.2154 12.4433C21.6449 12.0746 21.9241 11.5611 22 11.0001V4.00012C21.9241 3.43918 21.6449 2.92562 21.2154 2.55694C20.7859 2.18825 20.236 1.99011 19.67 2.00012H17" stroke="white" stroke-width="2.5" stroke-linecap="round" stroke-linejoin="round"/>
</svg>
