<svg width="20" height="19" viewBox="0 0 20 19" fill="none" xmlns="http://www.w3.org/2000/svg">
<path d="M19.6488 17.7325C18.2209 15.2641 16.0206 13.4941 13.4528 12.655C14.723 11.8989 15.7098 10.7467 16.2618 9.37546C16.8137 8.0042 16.9003 6.48966 16.5082 5.06443C16.1161 3.6392 15.267 2.38209 14.0912 1.48615C12.9155 0.590208 11.4782 0.10498 10 0.10498C8.52182 0.10498 7.0845 0.590208 5.90878 1.48615C4.73305 2.38209 3.88394 3.6392 3.49182 5.06443C3.09971 6.48966 3.18628 8.0042 3.73824 9.37546C4.2902 10.7467 5.27703 11.8989 6.54719 12.655C3.97938 13.4932 1.77906 15.2632 0.351252 17.7325C0.298892 17.8179 0.264161 17.9129 0.24911 18.0119C0.234059 18.1109 0.238992 18.212 0.263619 18.309C0.288245 18.4061 0.332065 18.4973 0.392494 18.5772C0.452924 18.657 0.528737 18.724 0.615463 18.7741C0.702188 18.8242 0.798069 18.8564 0.897447 18.8688C0.996825 18.8813 1.09769 18.8737 1.19408 18.8465C1.29048 18.8193 1.38046 18.7731 1.45871 18.7106C1.53696 18.6481 1.6019 18.5705 1.64969 18.4825C3.41594 15.43 6.53781 13.6075 10 13.6075C13.4622 13.6075 16.5841 15.43 18.3503 18.4825C18.3981 18.5705 18.463 18.6481 18.5413 18.7106C18.6195 18.7731 18.7095 18.8193 18.8059 18.8465C18.9023 18.8737 19.0032 18.8813 19.1026 18.8688C19.2019 18.8564 19.2978 18.8242 19.3845 18.7741C19.4713 18.724 19.5471 18.657 19.6075 18.5772C19.6679 18.4973 19.7118 18.4061 19.7364 18.309C19.761 18.212 19.7659 18.1109 19.7509 18.0119C19.7358 17.9129 19.7011 17.8179 19.6488 17.7325ZM4.75 6.85753C4.75 5.81918 5.05791 4.80415 5.63479 3.94079C6.21166 3.07743 7.0316 2.40452 7.99091 2.00716C8.95023 1.6098 10.0058 1.50584 11.0242 1.70841C12.0426 1.91098 12.9781 2.41099 13.7123 3.14522C14.4465 3.87945 14.9466 4.81491 15.1491 5.83331C15.3517 6.85171 15.2477 7.90731 14.8504 8.86662C14.453 9.82593 13.7801 10.6459 12.9167 11.2227C12.0534 11.7996 11.0384 12.1075 10 12.1075C8.60807 12.106 7.27358 11.5524 6.28934 10.5682C5.30509 9.58395 4.75149 8.24946 4.75 6.85753Z" fill="white"/>
</svg>
