<svg width="21" height="21" viewBox="0 0 21 21" fill="none" xmlns="http://www.w3.org/2000/svg">
<path d="M16 20.8574H5V7.85742L12 0.857422L13.25 2.10742C13.3667 2.22409 13.4627 2.38242 13.538 2.58242C13.6133 2.78242 13.6507 2.97409 13.65 3.15742V3.50742L12.55 7.85742H19C19.5333 7.85742 20 8.05742 20.4 8.45742C20.8 8.85742 21 9.32409 21 9.85742V11.8574C21 11.9741 20.9833 12.0991 20.95 12.2324C20.9167 12.3658 20.8833 12.4908 20.85 12.6074L17.85 19.6574C17.7 19.9908 17.45 20.2741 17.1 20.5074C16.75 20.7408 16.3833 20.8574 16 20.8574ZM7 18.8574H16L19 11.8574V9.85742H10L11.35 4.35742L7 8.70742V18.8574ZM5 7.85742V9.85742H2V18.8574H5V20.8574H0V7.85742H5Z" fill="white"/>
</svg>
